PathFileType	4	(X/Y/Z)	./resultDataOpenSim/trcMotMarkerGrf/sub06/qtm-15-02.trc
DataRate	CameraRate	NumFrames	NumMarkers	Units	OrigDataRate	OrigDataStartFrame	OrigNumFrames
250.000000	250.000000	8	24	m	250.000000	137	547
Frame#	Time	L.Toe.Tip			R.Toe.Tip			L.Ankle.Lat			R.Ankle.Lat			L.Ankle.Med			R.Ankle.Med			L.Heel			R.Heel			L.Knee.Lat			R.Knee.Lat			L.Knee.Med			R.Knee.Med			L.Thigh.Upper			R.Thigh.Upper			L.ASIS			R.ASIS			V.Sacral			L.Acromium			R.Acromium			C7			L.Elbow			R.Elbow			L.Wrist.Lat			R.Wrist.Lat
		X1	Y1	Z1	X2	Y2	Z2	X3	Y3	Z3	X4	Y4	Z4	X5	Y5	Z5	X6	Y6	Z6	X7	Y7	Z7	X8	Y8	Z8	X9	Y9	Z9	X10	Y10	Z10	X11	Y11	Z11	X12	Y12	Z12	X13	Y13	Z13	X14	Y14	Z14	X15	Y15	Z15	X16	Y16	Z16	X17	Y17	Z17	X18	Y18	Z18	X19	Y19	Z19	X20	Y20	Z20	X21	Y21	Z21	X22	Y22	Z22	X23	Y23	Z23	X24	Y24	Z24

137	0.544	-0.19713802	0.082172265	-0.076564059	-0.71554136	0.035684502	0.084620729	-0.32468392	0.087076874	-0.088158802	-0.84934766	0.066914849	0.099532866	-0.31871918	0.10464994	-0.0029287801	-0.82442537	0.082983934	0.013284845	-0.38237346	0.040781794	-0.03152345	-0.9039242	0.04614536	0.035575471	-0.36508683	0.45979858	-0.097291007	-0.70027685	0.42489642	0.13720405	-0.38699704	0.45450202	0.024775081	-0.73243125	0.42879809	0.0062143191	-0.56077439	0.80375759	-0.14814896	-0.61591985	0.77873536	0.2022794	-0.51116828	0.84535852	-0.088452717	-0.50884973	0.8298812	0.15680537	-0.68744142	0.91669786	0.030238486	-0.57272838	1.324851	-0.15222662	-0.54992392	1.3131509	0.20879143	-0.64080053	1.3528561	0.031812138	-0.68486422	1.0363937	-0.21418372	-0.55176834	0.9976307	0.30717236	-0.60343881	0.81035394	-0.2646581	-0.32109308	0.90661201	0.26972147
138	0.548	-0.17816709	0.084809863	-0.075656213	-0.71546417	0.035654907	0.084592556	-0.3060785	0.087757344	-0.088849659	-0.84903703	0.067378574	0.099373377	-0.30137299	0.10519642	-0.0037162343	-0.82385861	0.083254553	0.013160381	-0.36354728	0.040336526	-0.032374256	-0.90372246	0.046846366	0.035347824	-0.35776385	0.45829775	-0.096597522	-0.69691885	0.4241024	0.13722486	-0.38019988	0.4523216	0.025515657	-0.72872156	0.42827259	0.0060951249	-0.55366532	0.80153581	-0.14817401	-0.6105757	0.77726681	0.20270798	-0.50369842	0.84309972	-0.088223675	-0.50266592	0.82788469	0.15700787	-0.68105801	0.91492938	0.030494542	-0.56625883	1.3226845	-0.15247764	-0.54337077	1.3110612	0.20875237	-0.63435578	1.3511411	0.031625965	-0.67955827	1.0348246	-0.21407021	-0.54299834	0.99561579	0.30761979	-0.5999767	0.80847025	-0.26558104	-0.31168018	0.90769626	0.26878921
139	0.552	-0.15964327	0.087552984	-0.074742502	-0.71538997	0.035626136	0.084564458	-0.28787755	0.088689055	-0.089537234	-0.84874065	0.06787879	0.099228454	-0.28441803	0.10591525	-0.0045528329	-0.82329479	0.083583241	0.01302054	-0.34497826	0.040128848	-0.033487611	-0.90353182	0.04758504	0.03516274	-0.35021112	0.45675182	-0.095849193	-0.69349172	0.42332093	0.1372574	-0.37344961	0.45005942	0.026215577	-0.72492834	0.42775724	0.0059644147	-0.54650529	0.79926642	-0.14816897	-0.60514949	0.775837	0.20279892	-0.49604851	0.84080846	-0.088056699	-0.49639166	0.82601699	0.15709802	-0.67467292	0.91302605	0.030309558	-0.55977921	1.3205333	-0.15273381	-0.53674728	1.3089902	0.20869013	-0.62783944	1.3493547	0.03145874	-0.6741747	1.0332392	-0.21392529	-0.53425284	0.9936122	0.30803197	-0.59639007	0.80660287	-0.26645231	-0.30231219	0.90870277	0.26783753
140	0.556	-0.14164036	0.090414486	-0.073842813	-0.71531797	0.035596753	0.084535068	-0.27012479	0.089815318	-0.090209183	-0.84845873	0.068430707	0.099113053	-0.26790916	0.10677681	-0.0054073973	-0.82273811	0.083974139	0.012858963	-0.32672192	0.04002731	-0.035070542	-0.90336909	0.048376151	0.035050768	-0.34260805	0.45515908	-0.095125319	-0.69000446	0.42255773	0.13729395	-0.36670317	0.44773643	0.026886688	-0.72104353	0.42725131	0.0058150736	-0.53929505	0.79696903	-0.14813441	-0.59946463	0.77433185	0.202583	-0.48821463	0.83848821	-0.087963665	-0.49003899	0.82427524	0.15708212	-0.66811216	0.91093518	0.029797662	-0.55328891	1.3184015	-0.15298779	-0.53003893	1.3069472	0.20860082	-0.62126619	1.3475276	0.031302365	-0.66871018	1.0316289	-0.21373729	-0.5255189	0.99162265	0.30840416	-0.59263447	0.80477486	-0.26725503	-0.29300169	0.90962438	0.26687431
141	0.56	-0.12422957	0.093421558	-0.072961266	-0.71524604	0.035568045	0.084505369	-0.25286604	0.091077	-0.090836839	-0.84815829	0.069055297	0.099033205	-0.25184887	0.10778308	-0.0062053637	-0.82218183	0.084417415	0.012701466	-0.3088827	0.039970177	-0.037165739	-0.903233	0.049245737	0.035011374	-0.33513367	0.45351977	-0.094493316	-0.68649913	0.42179443	0.13730284	-0.35992861	0.44537012	0.027541001	-0.71706727	0.42674695	0.005656307	-0.53203461	0.7946532	-0.14807684	-0.59326777	0.77271741	0.20191052	-0.48019051	0.83614217	-0.087957422	-0.48365691	0.82257133	0.15704458	-0.66139721	0.90879107	0.029229699	-0.54678817	1.3162872	-0.15323411	-0.52327135	1.3049321	0.20848534	-0.61466197	1.3456807	0.031146796	-0.66316026	1.029985	-0.21349442	-0.51679863	0.98965697	0.30873134	-0.58868469	0.80298771	-0.2679841	-0.28376114	0.91046079	0.26589917
142	0.564	-0.107478	0.096607938	-0.072094771	-0.71517356	0.035540574	0.084478901	-0.23615494	0.092421817	-0.09137691	-0.84781621	0.069748571	0.098976138	-0.23625454	0.10891503	-0.0068750774	-0.82163065	0.084898735	0.012584365	-0.29155443	0.039960692	-0.039558121	-0.90308783	0.05021408	0.035000234	-0.32775796	0.45185781	-0.093958715	-0.68301351	0.42100396	0.13725239	-0.35311276	0.44297341	0.028176889	-0.7129992	0.4262278	0.0055095669	-0.52472175	0.79232165	-0.1480027	-0.58651624	0.77102567	0.20068188	-0.47196117	0.83377259	-0.08805546	-0.47731615	0.82074026	0.15714341	-0.65466531	0.90682821	0.028977945	-0.54027578	1.3141851	-0.15347324	-0.51647134	1.3029443	0.20834084	-0.60804685	1.3438157	0.030986066	-0.65752291	1.0283156	-0.21319839	-0.50810912	0.98772376	0.3090137	-0.5846028	0.80121217	-0.26866088	-0.27459053	0.91121597	0.26490167
143	0.568	-0.091440695	0.099987879	-0.071244284	-0.71510107	0.035514316	0.084458987	-0.22005474	0.09379918	-0.091794324	-0.84743705	0.070488693	0.098929323	-0.22120913	0.11009238	-0.0073902523	-0.82111043	0.085414975	0.012523117	-0.27481173	0.040007175	-0.041799069	-0.9028884	0.051290078	0.034961751	-0.32034928	0.45020752	-0.093498611	-0.67952475	0.42018123	0.13714427	-0.34625284	0.4405562	0.028780669	-0.70883007	0.42567616	0.0053978526	-0.51734883	0.78997697	-0.14791663	-0.57952439	0.76930345	0.19917011	-0.46349784	0.83138028	-0.088283736	-0.47106589	0.81865258	0.1575098	-0.64792583	0.90520029	0.029395085	-0.53374727	1.3120893	-0.15371268	-0.5096474	1.3009862	0.20815305	-0.60142819	1.3419301	0.030811923	-0.65180217	1.0266468	-0.21287803	-0.4994628	0.98582406	0.30924839	-0.58050832	0.79941766	-0.26932369	-0.26548016	0.91189351	0.26386579
144	0.572	-0.076148257	0.10352603	-0.070409152	-0.71502793	0.035490588	0.084445929	-0.20462001	0.095159407	-0.092078928	-0.84702404	0.071272736	0.098901595	-0.20679745	0.11121051	-0.0077441316	-0.82062981	0.085975189	0.012511833	-0.25869615	0.040080681	-0.043492746	-0.90261361	0.052479796	0.034872456	-0.31283867	0.44859263	-0.093106369	-0.67594124	0.41935037	0.1370197	-0.33934844	0.43813045	0.029335559	-0.70453894	0.42508028	0.0053301721	-0.50990972	0.78762701	-0.14782636	-0.57270701	0.76758836	0.19784843	-0.45476943	0.82896599	-0.088672359	-0.46484945	0.81634737	0.15808794	-0.64095214	0.90383696	0.030496537	-0.52719674	1.3100004	-0.15396573	-0.50281019	1.2990603	0.2079137	-0.59479961	1.3400284	0.030611516	-0.64600507	1.025003	-0.21256958	-0.49086271	0.98395845	0.30943022	-0.57645857	0.79760056	-0.26999641	-0.2564284	0.9124953	0.26279415
